<svg class="mysvg" width="32" height="32" viewBox="0 0 32 32" fill="none" xmlns="http://www.w3.org/2000/svg">
  <path fill-rule="evenodd" clip-rule="evenodd" d="M16 3.5C9.09644 3.5 3.5 9.09644 3.5 16C3.5 22.9036 9.09644 28.5 16 28.5C22.9036 28.5 28.5 22.9036 28.5 16C28.5 15.0785 28.4005 14.182 28.2123 13.32L31.1433 12.68C31.3771 13.7509 31.5 14.862 31.5 16C31.5 24.5604 24.5604 31.5 16 31.5C7.43959 31.5 0.5 24.5604 0.5 16C0.5 7.43959 7.43959 0.5 16 0.5C19.793 0.5 23.2712 1.86431 25.9649 4.12727L24.0351 6.42427C21.8618 4.59841 19.0611 3.5 16 3.5Z" fill="#3880FF"></path>
  <path fill-rule="evenodd" clip-rule="evenodd" d="M27 5.5C26.1716 5.5 25.5 6.17157 25.5 7C25.5 7.82843 26.1716 8.5 27 8.5C27.8284 8.5 28.5 7.82843 28.5 7C28.5 6.17157 27.8284 5.5 27 5.5ZM22.5 7C22.5 4.51472 24.5147 2.5 27 2.5C29.4853 2.5 31.5 4.51472 31.5 7C31.5 9.48528 29.4853 11.5 27 11.5C24.5147 11.5 22.5 9.48528 22.5 7Z" fill="#194BFD"></path>
  <circle cx="16" cy="16" r="6" stroke="#0CADFF" stroke-width="3"></circle>
</svg>
