<svg xmlns:dc="http://purl.org/dc/elements/1.1/" xmlns:cc="http://creativecommons.org/ns#" xmlns:rdf="http://www.w3.org/1999/02/22-rdf-syntax-ns#" xmlns:svg="http://www.w3.org/2000/svg" xmlns="http://www.w3.org/2000/svg" xmlns:sodipodi="http://sodipodi.sourceforge.net/DTD/sodipodi-0.dtd" xmlns:inkscape="http://www.inkscape.org/namespaces/inkscape" width="40mm" height="40mm" viewBox="0 0 40 40" version="1.1" id="svg1313" inkscape:version="0.92.4 (5da689c313, 2019-01-14)" sodipodi:docname="logo.svg">
  <defs id="defs1307"/>
  <sodipodi:namedview id="base" pagecolor="#ffffff" bordercolor="#666666" borderopacity="1.0" inkscape:pageopacity="0.0" inkscape:pageshadow="2" inkscape:zoom="3.959798" inkscape:cx="49.919252" inkscape:cy="115.76777" inkscape:document-units="mm" inkscape:current-layer="layer1" showgrid="false" inkscape:window-width="3440" inkscape:window-height="1417" inkscape:window-x="-8" inkscape:window-y="-8" inkscape:window-maximized="1"/>
  <metadata id="metadata1310">
    <rdf:RDF>
      <cc:Work rdf:about="">
        <dc:format>image/svg+xml</dc:format>
        <dc:type rdf:resource="http://purl.org/dc/dcmitype/StillImage"/>
        <dc:title/>
      </cc:Work>
    </rdf:RDF>
  </metadata>
  <g inkscape:label="Layer 1" inkscape:groupmode="layer" id="layer1" transform="translate(0,-257)">
    <path d="m 1.9681788,258.97916 c 10.9937102,-2.3554 24.0811152,-2.49354 36.1113212,0 0,0.002 0,0.007 0,0.01 0.639397,2.9899 1.113847,6.13456 1.417071,9.37051 h -4.99307 c -0.215472,-1.70033 -0.494919,-3.35893 -0.837114,-4.95901 0,-0.002 0,-0.005 0,-0.007 -9.090018,-1.88419 -18.978924,-1.77979 -27.2858389,0 0,0.007 0,0.0179 0,0.0256 -1.7795307,8.30341 -1.878915,18.18424 0.00254,27.26579 4.866e-4,0 4.866e-4,0 0.00133,0 0,0.002 0,0.002 0,0.005 8.3071949,1.77673 18.1972549,1.87769 27.2872739,0 0,-0.0153 0,-0.0285 0,-0.0428 0.308502,-1.49814 0.562765,-3.01811 0.76512,-4.54878 h 5.001523 c -0.298741,3.01551 -0.746954,6.01422 -1.351634,8.9501 0,0.018 0,0.0372 0,0.0564 -12.030079,2.48514 -25.119021,2.35145 -36.1130899,0 0,-0.002 0,-0.005 0,-0.007 -0.00108,0 -0.00108,0 -0.00185,0 -2.4912311,-12.01878 -2.3595905,-25.09545 -0.00512,-36.08466 0,-0.01 0,-0.0231 0,-0.034 z" style="fill:#ffffff;fill-rule:evenodd;stroke-width:0.67788857" id="path867" inkscape:connector-curvature="0"/>
    <path d="m 11.83213,274.24609 c 0.724127,0.26878 1.282562,0.88369 1.472029,1.64225 h 4.374221 c 0.255953,-1.02517 1.185636,-1.78819 2.288286,-1.78819 1.102651,0 2.032232,0.76302 2.288263,1.78819 h 4.267866 c 0.255954,-1.02517 1.185611,-1.78819 2.288287,-1.78819 1.299036,0 2.358565,1.05939 2.358565,2.35835 0,0.93233 -0.546316,1.74098 -1.33475,2.12337 l 0.02562,5.19284 c 0.775419,0.38705 1.310488,1.18907 1.310488,2.11181 0,1.29899 -1.059556,2.35839 -2.358591,2.35839 -0.897708,0 -1.681224,-0.50653 -2.079476,-1.248 h -4.685847 c -0.398254,0.74147 -1.181359,1.248 -2.079092,1.248 -0.897709,0 -1.681225,-0.50653 -2.079477,-1.248 h -4.792201 c -0.398252,0.74168 -1.181281,1.2482 -2.079092,1.2482 -1.2989579,0 -2.3585139,-1.0596 -2.3585139,-2.35859 0,-1.29896 1.059556,-2.35843 2.3585139,-2.35843 1.044235,0 1.933001,0.68417 2.241786,1.62726 h 4.466481 c 0.308835,-0.94309 1.19837,-1.62726 2.242503,-1.62726 1.044157,0 1.932949,0.68417 2.241784,1.62726 h 4.360128 c 0.22649,-0.69177 0.76512,-1.24439 1.448432,-1.48966 l -0.02306,-4.99556 c -0.482802,-0.1796 -0.891841,-0.51315 -1.166857,-0.94024 h -4.875904 c -0.420236,0.65276 -1.153022,1.08708 -1.984243,1.08708 -0.831247,0 -1.564033,-0.43432 -1.984268,-1.08708 h -4.982257 c -0.420236,0.65296 -1.153023,1.08721 -1.98427,1.08721 -1.2989579,0 -2.3584889,-1.05956 -2.3584889,-2.3586 0,-0.93181 0.545702,-1.7404 1.3336755,-2.12313 l -0.02049,-4.02185 c -0.7769305,-0.3866 -1.3132025,-1.18955 -1.3132025,-2.11332 0,-1.29896 1.05953,-2.35836 2.3584879,-2.35836 1.07142,0 1.979658,0.72128 2.264973,1.70279 h 4.420312 c 0.285315,-0.98151 1.194092,-1.70279 2.265511,-1.70279 1.071392,0 1.979631,0.72128 2.264946,1.70279 h 4.313959 c 0.285316,-0.98151 1.194168,-1.70279 2.26551,-1.70279 1.299035,0 2.358566,1.0594 2.358566,2.35836 0,1.29903 -1.059531,2.35846 -2.358566,2.35846 -0.867244,0 -1.628162,-0.47202 -2.03774,-1.17249 h -4.769756 c -0.409654,0.70047 -1.169701,1.17249 -2.036919,1.17249 -0.86722,0 -1.628163,-0.47202 -2.037817,-1.17249 h -4.876061 c -0.277732,0.47493 -0.716029,0.84492 -1.240056,1.03398 z" style="fill:#ffffff;fill-rule:evenodd;stroke-width:0.67788857" id="path869" inkscape:connector-curvature="0"/>
    <path d="m 34.552591,284.3909 c 0.502838,-4.64983 0.529279,-9.57531 0.03715,-14.4393 h 4.940649 c 0.370735,4.85991 0.355208,9.73679 -0.02307,14.4393 z" style="fill:#ffffff;fill-rule:evenodd;stroke-width:0.67788857" id="path871" inkscape:connector-curvature="0"/>
  </g>
</svg>
